<?xml version="1.0"?>
<svg xmlns="http://www.w3.org/2000/svg" viewBox="0 0 50 50">
    <path d="M 38.029297 2.0039062 C 36.849447 1.9981848 35.661094 2.2002344 34.519531 2.6230469 L 32.957031 3.234375 L 45.677734 15.951172 L 46.794922 16.970703 L 47.347656 15.535156 C 47.378656 15.465156 47.408594 15.394266 47.433594 15.322266 C 48.701594 11.712266 47.773313 7.6336875 45.070312 4.9296875 C 43.175563 3.0363125 40.624967 2.0164934 38.029297 2.0039062 z M 12.554688 2.0175781 C 9.757375 1.8701094 6.9569375 2.9016875 4.9296875 4.9296875 C 2.1746875 7.6846875 1.2680937 11.825516 2.6210938 15.478516 L 3.2324219 17.039062 L 15.951172 4.3203125 L 16.964844 3.2109375 L 15.539062 2.6523438 C 15.467063 2.6213437 15.396266 2.5904531 15.322266 2.5644531 C 14.419516 2.2469531 13.487125 2.0667344 12.554688 2.0175781 z M 25 6 C 13.42 6 4 15.42 4 27 C 4 38.58 13.42 48 25 48 C 36.58 48 46 38.58 46 27 C 46 15.42 36.58 6 25 6 z M 25 16 L 37 16 L 37 18.445312 L 27.494141 27 L 37 27 L 37 29 L 25 29 L 25 26.554688 L 34.505859 18 L 25 18 L 25 16 z M 15 31 L 22 31 L 22 33.480469 L 17.601562 37 L 22 37 L 22 39 L 15 39 L 15 36.519531 L 19.398438 33 L 15 33 L 15 31 z M 8.5429688 43.044922 L 5.2929688 46.292969 C 4.9019687 46.683969 4.9019688 47.316031 5.2929688 47.707031 C 5.4879688 47.902031 5.744 48 6 48 C 6.256 48 6.5120312 47.902031 6.7070312 47.707031 L 10 44.414062 C 9.495 43.978063 9.0089688 43.522922 8.5429688 43.044922 z M 41.457031 43.044922 C 40.991031 43.522922 40.505 43.978063 40 44.414062 L 43.292969 47.707031 C 43.487969 47.902031 43.744 48 44 48 C 44.256 48 44.512031 47.902031 44.707031 47.707031 C 45.098031 47.316031 45.098031 46.683969 44.707031 46.292969 L 41.457031 43.044922 z"/>
</svg>
